<svg viewBox="0 0 56 56" xmlns="http://www.w3.org/2000/svg" fill="#FF365E" class="text-radical-100 h-l min-h-l"><title>Factorial</title><path d="M45.6301 49.7538C40.8168 53.6596 34.6817 56 28 56C21.3183 56 15.1832 53.6596 10.3699 49.7538C15.1832 45.8481 21.3183 43.5077 28 43.5077C34.6817 43.5077 40.8168 45.8481 45.6301 49.7538Z"></path><path d="M10.2163 42.9955C6.79849 38.9463 4.73846 33.7137 4.73846 28C4.73846 15.153 15.153 4.73846 28 4.73846C40.847 4.73846 51.2615 15.153 51.2615 28C51.2615 33.7137 49.2015 38.9463 45.7837 42.9955C46.9596 43.7302 48.0866 44.5355 49.1587 45.4053L49.627 45.7854C53.6089 40.949 56 34.7537 56 28C56 12.536 43.464 0 28 0C12.536 0 0 12.536 0 28C0 34.7537 2.39114 40.949 6.37303 45.7853L6.84133 45.4053C7.91335 44.5355 9.04039 43.7302 10.2163 42.9955Z"></path><path d="M38.3385 27.1385C38.3385 32.8482 33.7098 37.4769 28 37.4769C22.2902 37.4769 17.6615 32.8482 17.6615 27.1385C17.6615 21.4287 22.2902 16.8 28 16.8C33.7098 16.8 38.3385 21.4287 38.3385 27.1385Z"></path></svg>